<?xml version="1.0" encoding="UTF-8"?> <svg xmlns="http://www.w3.org/2000/svg" width="125" height="228" viewBox="0 0 125 228" fill="none"><path d="M9.43075 208.26H6.19328V217.053H3.88394V208.26H0.659668V206.215H9.43075V208.26Z" fill="black"></path><path d="M123.811 208.26H120.574V217.053H118.264V208.26H115.04V206.215H123.811V208.26Z" fill="black"></path><path d="M17.5687 214.731H12.8708L11.9735 217.053H9.57617L14.0849 206.215H16.3986L20.9205 217.053H18.4616L17.5643 214.731H17.5687ZM16.8297 212.826L15.2242 208.678L13.6186 212.826H16.8253H16.8297Z" fill="black"></path><path d="M31.8249 212.356C32.1505 212.801 32.3176 213.346 32.3176 213.997C32.3176 214.956 31.9789 215.704 31.2971 216.241C30.6197 216.777 29.6476 217.046 28.3851 217.046H23.4014V206.207H28.1124C29.2869 206.207 30.2018 206.449 30.8572 206.933C31.5126 207.417 31.8381 208.107 31.8381 209.009C31.8381 209.546 31.715 210.021 31.4643 210.425C31.2135 210.835 30.8616 211.156 30.4086 211.393C31.0244 211.591 31.495 211.908 31.8249 212.352M25.7239 210.694H27.9057C28.4159 210.694 28.803 210.584 29.0625 210.359C29.3221 210.135 29.454 209.81 29.454 209.374C29.454 208.939 29.3221 208.626 29.0581 208.398C28.7942 208.169 28.4115 208.059 27.9101 208.059H25.7283V210.689L25.7239 210.694ZM29.9423 213.79C29.9423 212.893 29.3924 212.444 28.2928 212.444H25.7195V215.185H28.2928C29.3924 215.185 29.9423 214.719 29.9423 213.79Z" fill="black"></path><path d="M41.6783 206.691C42.3381 207.012 42.8484 207.465 43.2047 208.054C43.561 208.644 43.7413 209.339 43.7413 210.144C43.7413 210.949 43.561 211.635 43.2047 212.225C42.8484 212.818 42.3381 213.271 41.6783 213.588C41.0185 213.905 40.2399 214.059 39.3426 214.059H37.3059V217.046H34.9658V206.207H39.347C40.2443 206.207 41.0229 206.365 41.6827 206.686M40.8249 211.525C41.19 211.2 41.3748 210.738 41.3748 210.14C41.3748 209.541 41.19 209.066 40.8249 208.736C40.4598 208.411 39.9232 208.248 39.2194 208.248H37.3103V212.009H39.2194C39.9232 212.009 40.4554 211.846 40.8249 211.521" fill="black"></path><path d="M111.17 206.691C111.829 207.012 112.34 207.465 112.696 208.054C113.052 208.644 113.233 209.339 113.233 210.144C113.233 210.949 113.052 211.635 112.696 212.225C112.34 212.818 111.829 213.271 111.17 213.588C110.51 213.905 109.731 214.059 108.834 214.059H106.797V217.046H104.457V206.207H108.838C109.736 206.207 110.514 206.365 111.174 206.686M110.312 211.525C110.677 211.2 110.862 210.738 110.862 210.14C110.862 209.541 110.677 209.066 110.312 208.736C109.947 208.411 109.41 208.248 108.706 208.248H106.797V212.009H108.706C109.41 212.009 109.942 211.846 110.312 211.521" fill="black"></path><path d="M46.4111 206.215H48.7381V213.275L53.5635 206.215H55.7628V217.053H53.4491V210.007L48.6193 217.053H46.4111V206.215Z" fill="black"></path><path d="M69.2889 217.067L58.27 217.058C59.7436 213.442 61.2128 209.831 62.6863 206.215H65.0133C66.4385 209.831 67.8637 213.451 69.2889 217.067ZM61.4151 215.008H65.9986L63.7728 208.845L61.4151 215.008Z" fill="black"></path><path d="M79.0892 214.731H74.3913L73.494 217.053H71.0967L75.6054 206.215H77.9191L82.4454 217.053H79.9865L79.0892 214.731ZM78.3502 212.826L76.7447 208.678L75.1391 212.826H78.3458H78.3502Z" fill="black"></path><path d="M99.2972 214.731H94.5993L93.702 217.053H91.3047L95.8134 206.215H98.1271L102.649 217.053H100.19L99.2928 214.731H99.2972ZM98.5626 212.826L96.9571 208.678L95.3515 212.826H98.5582H98.5626Z" fill="black"></path><path d="M90.7374 206.886C90.7374 209.019 89.0087 210.753 86.8709 210.753C84.7331 210.753 83.0044 209.024 83.0044 206.886C83.0044 204.748 84.7331 203.02 86.8709 203.02C89.0087 203.02 90.7374 204.748 90.7374 206.886Z" fill="#50C2DD"></path><path d="M18.3514 73.1779C18.3514 78.0649 14.3925 82.0238 9.50553 82.0238C4.61853 82.0238 0.659668 78.0605 0.659668 73.1779C0.659668 68.2953 4.61853 64.332 9.50553 64.332C14.3925 64.332 18.3514 68.2909 18.3514 73.1779Z" fill="#50C2DD"></path><path d="M9.50567 61.4606C4.26238 61.4606 0 57.1982 0 51.9549C0 46.7116 4.26238 42.4492 9.50567 42.4492C14.749 42.4492 19.0113 46.7116 19.0113 51.9549C19.0113 57.1982 14.749 61.4606 9.50567 61.4606ZM9.50567 43.7688C4.99257 43.7688 1.31962 47.4418 1.31962 51.9549C1.31962 56.468 4.99257 60.1409 9.50567 60.1409C14.0188 60.1409 17.6917 56.468 17.6917 51.9549C17.6917 47.4418 14.0188 43.7688 9.50567 43.7688Z" fill="#50C2DD"></path><path d="M39.4437 73.1779C39.4437 78.0649 35.4848 82.0238 30.5978 82.0238C25.7108 82.0238 21.752 78.0649 21.752 73.1779C21.752 68.2909 25.7108 64.332 30.5978 64.332C35.4848 64.332 39.4437 68.2909 39.4437 73.1779Z" fill="#50C2DD"></path><path d="M30.5975 61.4606C25.3542 61.4606 21.0918 57.1982 21.0918 51.9549C21.0918 46.7116 25.3542 42.4492 30.5975 42.4492C35.8408 42.4492 40.1031 46.7116 40.1031 51.9549C40.1031 57.1982 35.8408 61.4606 30.5975 61.4606ZM30.5975 43.7688C26.0844 43.7688 22.4114 47.4418 22.4114 51.9549C22.4114 56.468 26.0844 60.1409 30.5975 60.1409C35.1106 60.1409 38.7835 56.468 38.7835 51.9549C38.7835 47.4418 35.1106 43.7688 30.5975 43.7688Z" fill="#50C2DD"></path><path d="M30.5975 40.234C25.3542 40.234 21.0918 35.9716 21.0918 30.7283C21.0918 25.485 25.3542 21.2227 30.5975 21.2227C35.8408 21.2227 40.1031 25.485 40.1031 30.7283C40.1031 35.9716 35.8408 40.234 30.5975 40.234ZM30.5975 22.5423C26.0844 22.5423 22.4114 26.2152 22.4114 30.7283C22.4114 35.2414 26.0844 38.9144 30.5975 38.9144C35.1106 38.9144 38.7835 35.2414 38.7835 30.7283C38.7835 26.2152 35.1106 22.5423 30.5975 22.5423Z" fill="#50C2DD"></path><path d="M60.5355 73.1779C60.5355 78.0649 56.5766 82.0238 51.6896 82.0238C46.8026 82.0238 42.8438 78.0649 42.8438 73.1779C42.8438 68.2909 46.8026 64.332 51.6896 64.332C56.5766 64.332 60.5355 68.2909 60.5355 73.1779Z" fill="#50C2DD"></path><path d="M51.6898 61.4606C46.4465 61.4606 42.1841 57.1982 42.1841 51.9549C42.1841 46.7116 46.4465 42.4492 51.6898 42.4492C56.9331 42.4492 61.1954 46.7116 61.1954 51.9549C61.1954 57.1982 56.9331 61.4606 51.6898 61.4606ZM51.6898 43.7688C47.1766 43.7688 43.5037 47.4418 43.5037 51.9549C43.5037 56.468 47.1766 60.1409 51.6898 60.1409C56.2029 60.1409 59.8758 56.468 59.8758 51.9549C59.8758 47.4418 56.2029 43.7688 51.6898 43.7688Z" fill="#50C2DD"></path><path d="M81.6273 73.1779C81.6273 78.0649 77.6684 82.0238 72.7814 82.0238C67.8944 82.0238 63.9355 78.0649 63.9355 73.1779C63.9355 68.2909 67.8944 64.332 72.7814 64.332C77.6684 64.332 81.6273 68.2909 81.6273 73.1779Z" fill="#50C2DD"></path><path d="M72.7816 61.4606C67.5383 61.4606 63.2759 57.1982 63.2759 51.9549C63.2759 46.7116 67.5383 42.4492 72.7816 42.4492C78.0248 42.4492 82.2872 46.7116 82.2872 51.9549C82.2872 57.1982 78.0248 61.4606 72.7816 61.4606ZM72.7816 43.7688C68.2684 43.7688 64.5955 47.4418 64.5955 51.9549C64.5955 56.468 68.2684 60.1409 72.7816 60.1409C77.2947 60.1409 80.9676 56.468 80.9676 51.9549C80.9676 47.4418 77.2947 43.7688 72.7816 43.7688Z" fill="#50C2DD"></path><path d="M72.7816 40.234C67.5383 40.234 63.2759 35.9716 63.2759 30.7283C63.2759 25.485 67.5383 21.2227 72.7816 21.2227C78.0248 21.2227 82.2872 25.485 82.2872 30.7283C82.2872 35.9716 78.0248 40.234 72.7816 40.234ZM72.7816 22.5423C68.2684 22.5423 64.5955 26.2152 64.5955 30.7283C64.5955 35.2414 68.2684 38.9144 72.7816 38.9144C77.2947 38.9144 80.9676 35.2414 80.9676 30.7283C80.9676 26.2152 77.2947 22.5423 72.7816 22.5423Z" fill="#50C2DD"></path><path d="M72.7816 19.0113C67.5383 19.0113 63.2759 14.749 63.2759 9.50567C63.2759 4.26238 67.5427 0 72.7816 0C78.0204 0 82.2872 4.26238 82.2872 9.50567C82.2872 14.749 78.0248 19.0113 72.7816 19.0113ZM72.7816 1.31962C68.2684 1.31962 64.5955 4.99257 64.5955 9.50567C64.5955 14.0188 68.2684 17.6917 72.7816 17.6917C77.2947 17.6917 80.9676 14.0188 80.9676 9.50567C80.9676 4.99257 77.2947 1.31962 72.7816 1.31962Z" fill="#50C2DD"></path><path d="M102.72 73.1779C102.72 78.0649 98.7607 82.0238 93.8737 82.0238C88.9867 82.0238 85.0278 78.0649 85.0278 73.1779C85.0278 68.2909 88.9867 64.332 93.8737 64.332C98.7607 64.332 102.72 68.2909 102.72 73.1779Z" fill="#50C2DD"></path><path d="M93.8733 61.4606C88.6301 61.4606 84.3677 57.1982 84.3677 51.9549C84.3677 46.7116 88.6301 42.4492 93.8733 42.4492C99.1166 42.4492 103.379 46.7116 103.379 51.9549C103.379 57.1982 99.1166 61.4606 93.8733 61.4606ZM93.8733 43.7688C89.3602 43.7688 85.6873 47.4418 85.6873 51.9549C85.6873 56.468 89.3602 60.1409 93.8733 60.1409C98.3865 60.1409 102.059 56.468 102.059 51.9549C102.059 47.4418 98.3865 43.7688 93.8733 43.7688Z" fill="#50C2DD"></path><path d="M93.8733 40.234C88.6301 40.234 84.3677 35.9716 84.3677 30.7283C84.3677 25.485 88.6301 21.2227 93.8733 21.2227C99.1166 21.2227 103.379 25.485 103.379 30.7283C103.379 35.9716 99.1166 40.234 93.8733 40.234ZM93.8733 22.5423C89.3602 22.5423 85.6873 26.2152 85.6873 30.7283C85.6873 35.2414 89.3602 38.9144 93.8733 38.9144C98.3865 38.9144 102.059 35.2414 102.059 30.7283C102.059 26.2152 98.3865 22.5423 93.8733 22.5423Z" fill="#50C2DD"></path><path d="M123.811 73.1779C123.811 78.0649 119.852 82.0238 114.965 82.0238C110.078 82.0238 106.12 78.0649 106.12 73.1779C106.12 68.2909 110.078 64.332 114.965 64.332C119.852 64.332 123.811 68.2909 123.811 73.1779Z" fill="#50C2DD"></path><path d="M114.966 61.4606C109.722 61.4606 105.46 57.1982 105.46 51.9549C105.46 46.7116 109.722 42.4492 114.966 42.4492C120.209 42.4492 124.471 46.7116 124.471 51.9549C124.471 57.1982 120.209 61.4606 114.966 61.4606ZM114.966 43.7688C110.453 43.7688 106.78 47.4418 106.78 51.9549C106.78 56.468 110.453 60.1409 114.966 60.1409C119.479 60.1409 123.152 56.468 123.152 51.9549C123.152 47.4418 119.479 43.7688 114.966 43.7688Z" fill="#50C2DD"></path><path d="M18.3514 94.2677C18.3514 99.1547 14.3925 103.114 9.50553 103.114C4.61853 103.114 0.659668 99.1503 0.659668 94.2677C0.659668 89.3851 4.61853 85.4219 9.50553 85.4219C14.3925 85.4219 18.3514 89.3807 18.3514 94.2677Z" fill="#50C2DD"></path><path d="M39.4437 94.2677C39.4437 99.1547 35.4848 103.114 30.5978 103.114C25.7108 103.114 21.752 99.1547 21.752 94.2677C21.752 89.3807 25.7108 85.4219 30.5978 85.4219C35.4848 85.4219 39.4437 89.3807 39.4437 94.2677Z" fill="#50C2DD"></path><path d="M60.5355 94.2677C60.5355 99.1547 56.5766 103.114 51.6896 103.114C46.8026 103.114 42.8438 99.1547 42.8438 94.2677C42.8438 89.3807 46.8026 85.4219 51.6896 85.4219C56.5766 85.4219 60.5355 89.3807 60.5355 94.2677Z" fill="#50C2DD"></path><path d="M81.6273 94.2677C81.6273 99.1547 77.6684 103.114 72.7814 103.114C67.8944 103.114 63.9355 99.1547 63.9355 94.2677C63.9355 89.3807 67.8944 85.4219 72.7814 85.4219C77.6684 85.4219 81.6273 89.3807 81.6273 94.2677Z" fill="#50C2DD"></path><path d="M60.5355 115.361C60.5355 120.248 56.5766 124.207 51.6896 124.207C46.8026 124.207 42.8438 120.248 42.8438 115.361C42.8438 110.474 46.8026 106.516 51.6896 106.516C56.5766 106.516 60.5355 110.474 60.5355 115.361Z" fill="#50C2DD"></path><path d="M81.6273 115.361C81.6273 120.248 77.6684 124.207 72.7814 124.207C67.8944 124.207 63.9355 120.248 63.9355 115.361C63.9355 110.474 67.8944 106.516 72.7814 106.516C77.6684 106.516 81.6273 110.474 81.6273 115.361Z" fill="#50C2DD"></path><path d="M60.5355 136.451C60.5355 141.338 56.5766 145.297 51.6896 145.297C46.8026 145.297 42.8438 141.338 42.8438 136.451C42.8438 131.564 46.8026 127.605 51.6896 127.605C56.5766 127.605 60.5355 131.564 60.5355 136.451Z" fill="#50C2DD"></path><path d="M81.6273 136.451C81.6273 141.338 77.6684 145.297 72.7814 145.297C67.8944 145.297 63.9355 141.338 63.9355 136.451C63.9355 131.564 67.8944 127.605 72.7814 127.605C77.6684 127.605 81.6273 131.564 81.6273 136.451Z" fill="#50C2DD"></path><path d="M60.5355 157.545C60.5355 162.432 56.5766 166.391 51.6896 166.391C46.8026 166.391 42.8438 162.432 42.8438 157.545C42.8438 152.658 46.8026 148.699 51.6896 148.699C56.5766 148.699 60.5355 152.658 60.5355 157.545Z" fill="#50C2DD"></path><path d="M81.6273 157.545C81.6273 162.432 77.6684 166.391 72.7814 166.391C67.8944 166.391 63.9355 162.432 63.9355 157.545C63.9355 152.658 67.8944 148.699 72.7814 148.699C77.6684 148.699 81.6273 152.658 81.6273 157.545Z" fill="#50C2DD"></path><path d="M60.5355 178.639C60.5355 183.526 56.5766 187.485 51.6896 187.485C46.8026 187.485 42.8438 183.526 42.8438 178.639C42.8438 173.752 46.8026 169.793 51.6896 169.793C56.5766 169.793 60.5355 173.752 60.5355 178.639Z" fill="#50C2DD"></path><path d="M81.6273 178.639C81.6273 183.526 77.6684 187.485 72.7814 187.485C67.8944 187.485 63.9355 183.526 63.9355 178.639C63.9355 173.752 67.8944 169.793 72.7814 169.793C77.6684 169.793 81.6273 173.752 81.6273 178.639Z" fill="#50C2DD"></path><path d="M102.72 94.2677C102.72 99.1547 98.7607 103.114 93.8737 103.114C88.9867 103.114 85.0278 99.1547 85.0278 94.2677C85.0278 89.3807 88.9867 85.4219 93.8737 85.4219C98.7607 85.4219 102.72 89.3807 102.72 94.2677Z" fill="#50C2DD"></path><path d="M123.811 94.2677C123.811 99.1547 119.852 103.114 114.965 103.114C110.078 103.114 106.12 99.1547 106.12 94.2677C106.12 89.3807 110.078 85.4219 114.965 85.4219C119.852 85.4219 123.811 89.3807 123.811 94.2677Z" fill="#50C2DD"></path><path d="M102.042 224.462L100.766 227.734H99.6445L101.756 222.605H102.35L104.43 227.734H103.309L102.042 224.462Z" fill="#50C2DD"></path><path d="M106.524 224.682H108.745V225.632H106.524V226.784H108.926V227.734H105.512V222.605H108.926V223.556H106.524V224.677V224.682Z" fill="#50C2DD"></path><path d="M114.129 227.739H113.118V224.506L110.685 227.739H110.091V222.61H111.103V225.843L113.527 222.61H114.129V227.739ZM112.933 221.928C112.709 222.14 112.44 222.245 112.115 222.245C111.789 222.245 111.521 222.14 111.297 221.928C111.072 221.717 110.962 221.453 110.962 221.137H111.609C111.609 221.269 111.657 221.379 111.754 221.471C111.851 221.563 111.97 221.607 112.115 221.607C112.26 221.607 112.379 221.563 112.475 221.471C112.577 221.379 112.625 221.269 112.625 221.137H113.263C113.263 221.453 113.153 221.717 112.928 221.928H112.933Z" fill="#50C2DD"></path><path d="M116.606 224.497H117.807C118.383 224.497 118.819 224.642 119.118 224.932C119.417 225.223 119.566 225.619 119.566 226.116C119.566 226.613 119.421 227.013 119.126 227.303C118.832 227.589 118.392 227.734 117.807 227.734H115.594V222.605H119.025V223.556H116.606V224.493V224.497ZM116.606 226.784H117.82C118.343 226.784 118.603 226.56 118.603 226.116C118.603 225.671 118.343 225.447 117.82 225.447H116.606V226.78V226.784Z" fill="#50C2DD"></path><path d="M122.496 224.462L121.22 227.734H120.099L122.21 222.605H122.804L124.884 227.734H123.763L122.496 224.462Z" fill="#50C2DD"></path></svg> 